<?xml version="1.0" encoding="utf-8"?>
<!-- Generator: Adobe Illustrator 26.0.1, SVG Export Plug-In . SVG Version: 6.00 Build 0)  -->
<svg version="1.1" id="Layer_1" xmlns="http://www.w3.org/2000/svg" xmlns:xlink="http://www.w3.org/1999/xlink" x="0px" y="0px"
	 viewBox="0 0 1353.4 1663.2" style="enable-background:new 0 0 1353.4 1663.2;" xml:space="preserve">
<style type="text/css">
	.st0{fill:#FFFFFF;}
</style>
<g>
	<path class="st0" d="M1295,353.2C1178.2,89.8,944.1,17.2,665.1,33.9c-35.8,2.1-31.8,49.6,4.2,45.4c12.5-1.5,130.5-5.3,206.7,5.9
		c282,41.3,421.8,297.3,405.8,422.8c-10,78.3-9.3,83.5-55.1,179.7c-115.4,242-362.3,363.1-504.4,356.9
		c-60.2-2.6-219.3,9.8-408.3-106.9c-47.5-29.3-89.2-65.7-130.8-102.4C87.1,750.5,65.3,661,73.8,546.5c7.3-98.8,26-110.2,46.7-114.8
		c141.8-31.8,138.7-39.2,132.1-20.1c-53.4,153.6,0.7,294.9,166.6,300.6c127.4,4.4,286.4-210.7,225.2-334.3
		c-5.1-10.3-11.9-7.4,129.6-7.4c10.6,0,10.7,0.1,6.1,9.5c-45.1,92.3-58,226.1,30.5,279.3c37,22.2,122.9,38.9,204.7,20.4
		c181.9-41.1,251.4-164.3,213.1-235.6c-1.9-3.5-2.5-5.9,2.3-8.9c19-11.9,22.2-49.5-34.6-79.6c-176.4-93.5-708.1-66.3-892.5-19.1
		c-9.9,2.5-3.9-4.7-25.1-4c-98.6,3.4,75.3-64.3,63.1-88c-2.8-5.5-8.6-3.9-13.7-2.7c-63.6,15.3-58,14.6-59,12.9
		c0,0,210.3-97.5,210.3-97.5c3.5-1.6,7.9-3,6.2-8c-1.7-5-6.2-4.5-10.4-3.7c-34.5,6.9-69.2,12.4-103.5,20.5
		c-4.9,1.2-9.6,4.2-15.1,2.8c3.6-4.2,8.4-6.4,13.2-8.6c44.7-20.6,89-42.1,132-66.1c28.1-15.7,57.1,13.3,67.2-19.1
		c9.6-30.7-51.6-47-124.6-9.4c-147.4,76-297.1,175.4-372.3,324.1c-3.1,6.1-7.4,9.4-13.5,11.9c-16.6,6.9-21.1,19.5-12.7,35.1
		c1.7,3.2,2,5.6,0.8,8.9c-22.1,63.2-22.5,159-19.2,193.1c2.9,29.9,11.2,59,22.4,86.9c16.5,41.1,38.2,79.1,69.9,110.8
		c38.9,38.9,104.6,94,127.7,110.4c40.8,28.8,82.9,55.4,129.1,74.9c68.8,29,65.1,25.8,60.9,30.3c-66.5,71.5-33.5,308.2-44.5,325.3
		c-35.5,55.5,25.3,115,85.3,90.4c2-0.8,5.6-4.6,6.9,0.3c1,3.8-3.1,2.9-5.3,3.4c-75.6,19.7-140.5,152.9-57.3,152.7
		c65.8-0.2,186.5,0.1,231.5-0.1c18.2-0.1,31.7-11.5,32.4-28.2c1-21.6-8.7-40.7-16.9-59.9c-1.7-3.9-9.2-6.4-9.9-9.1
		c2.8-0.1,5.7-0.5,8.5-0.4c91.3,4.1,91.3,0.9,89.3,12.8c-2.9,17.4-1.5,35-1.5,52.5c-0.1,28,12,40.2,40.1,39.9
		c75.2-0.8,213.3,4.1,244.2-8.9c51.4-21.6-35.7-117.5-88-135.1c7.2-4.9,20.9-9.6,29.2-27.5c17.6-38.1-3.8-56.7,12.7-79.3
		c1-1.4,2.7-112.5-4.6-142.8c-20.4-85.1-52.7-158.4-75.9-185.9c-5.1-6,1.7-6.1,4.3-7.2c230.6-99.1,397.6-327.6,409.4-557.6
		C1330,436.1,1314.4,397.1,1295,353.2z M818.9,403.6c4.3-9.2,9.5-18,13.9-27.1c2.2-4.5,5.1-6.5,10.4-6.1c32.9,2.4,65.9,2.5,98.8,5.2
		c17.7,1.5,35.3,3.5,53,4.2c5.8,0.2,7.7,2.1,7.6,7.9c-0.2,23.3-0.1,46.6-0.1,69.8c0,0,0,0,0.1,0c0,22-0.1,44,0,66
		c0.1,18.6,8.2,30,21.7,30.6c17.7,0.8,29.4-10.1,31.7-28.5c3.2-24.8,7.1-49.6,10.5-74.4c1.2-9.1,2.2-18.3,2.6-27.5
		c0.5-10.4-3.4-18.5-13.7-22.6c-1.8-0.7-3.6-1.4-5.1-2.6c-3.6-3-2.3-7.2-1.7-10.7c0.6-3.6,4.1-2.2,6.3-1.8c24.7,4.1,49.8,6,73.9,13
		c11.8,3.4,23.5,7.6,35.3,11.1c4.4,1.3,4.5,3.2,3,6.8c-5.5,13.2-1.6,24,8.9,33c17.6,15,21,32.9,14.4,55
		c-7.9,26.5-22.8,47.5-43.8,64.4c-46.9,37.7-100.5,60.3-159.9,69.2c-47.3,7.1-93.8,4.5-139.1-11.3c-31-10.8-47.9-35-53.6-65.5
		C783.9,506.5,795.1,453.9,818.9,403.6z M300,417.1c3.1-8,7.7-15.2,10.6-23.3c2.6-7.3,11.3-4.9,17-5.6c27.6-3.4,55.4-5.6,83.1-8.2
		c12.6-1.2,25.2-2.4,37.8-3.7c5.2-0.5,7.1,1.1,6.9,6.8c-0.5,15.3-0.2,30.6-0.2,45.9c-0.1,28.6-0.8,57.3,5.3,85.5
		c3.7,17.2,12.6,25.3,25.5,24.4c12.3-0.8,23.5-13.7,24.4-28.8c1.5-25.4,3.1-50.8,3.8-76.2c0.5-17.8,2.5-35.5,4.3-53.2
		c0.6-5.8,2.6-8.5,9.4-8.6c15.5-0.1,31.1,1.3,46.6-1.4c7.5-1.3,13.8,2,18.7,8.7c17.9,24.7,20.1,51.7,18,81.6
		c-4.9,71.9-86.3,167.3-140.5,192.4c-36.3,16.9-71.7,16-108.1,3.2c-47.5-16.6-79.6-61-81.9-111.6C278.6,501,283.8,458.3,300,417.1z
		 M266.3,231c23.5-23.3,53.4-34,84.4-42.2c0.9-0.2,2.4-0.8,2.5,1.2c-1.2,0.7-2.2,1.5-3.3,2c-27.1,13.8-54.3,27.5-81.4,41.2
		c-1.4,0.7-2.7,2.1-4.1,0.5C264.2,233.7,265.5,231.8,266.3,231z M132.9,373.6c17.2-25.6,33.9-51.6,56.1-73.3
		c1.1-1.1,2.1-2.4,3.1-3.6c7.5-8.3,12.2-18.4,28.4-13.5c13.1,4,27.9-3.6,41.5-7.8c12.4-3.8,24.7-8.3,37.1-12.2c2.4-0.8,5.7-4,7.5-1
		c1.1,1.9-3.2,3.3-5.2,4.7c-19.4,13.4-38.5,27.3-55.7,43.4c-5,4.6-12.2,8.9-10,17.1c2.2,8.4,10.2,9.3,17.4,11
		c5.1,1.2,10.1,1.1,16.1,1.3c3.1,0.8,7.5-1.5,11.4,1c-3.8,1.3-7.6,2.3-11.5,3.1c-44.3,9.6-87.4,24-131.3,35.1
		c-2.4,0.6-4.9,0.7-7.3,1.1C130.3,377.6,131.6,375.6,132.9,373.6z M644.4,1527.7c-12.1,4.9-17.2,14.6-14.1,27.2
		c0.3,1.2,0.7,2.5,0.9,3.7c1.2,6.4,7.7,14.3,3.9,18.3c-3.2,3.4-12.6,1.2-19.3,1.2c-27.4,0.1-54.8,0-82.2,0v-0.1
		c-31.2,0-62.5-0.3-93.7,0.2c-8.9,0.1-8.5-2.8-5.6-9.2c8.1-17.8,20.2-32.4,35.2-44.6c7.9-6.5,17-9.8,27.3-9.8c6.4,0,12.8,0.1,19-1.7
		c13-3.7,25,2.5,37.2,4.4c30,4.5,60,6.5,90.2,7.1c2.3,0,4.8-0.9,7,0.8C648.2,1526.1,646.3,1527,644.4,1527.7z M666.1,1480.4
		c-17.5-0.6-35-0.7-52.4-2.1c-21.2-1.7-42.3-3.4-63.3-7.2c-10.1-1.8-16.9-6.3-20.9-15.7c-5.2-12.1-8.1-24.8-9.3-37.8
		c-4.1-42.3-1.6-84.7-2-127c0-3.1,1.1-6.2,1.5-9.4c1.6-14-5.9-25.9-16.7-26.7c-18.3-1.3-27.5,6.5-28.9,23.1
		c-2.9,33.1-1.1,66.2-1.6,99.3c-0.2,10.7,0.1,10.5-9.9,6c-15.8-7.1-22.5-19.9-22.9-36.3c-0.4-17.2-0.1-34.4-0.1-58.2
		c-1.6-29.4,1.1-65.4,2.4-101.3c1.3-37.6,8.1-74.5,29.5-107c1.6-2.4,2.3-5.1,2.7-8c1.3-12.7,1.6-13.2,13.4-9.3
		c27.6,9,49.3,27.2,69.7,47c31.4,30.3,55.2,66.6,79.1,102.8c1.2,1.9,2.1,4.3,3.8,5.4c11.2,7.4,11.1,17.7,10.9,30.1
		c-1,65.6-0.6,131.3-0.5,197c0,14.1-0.5,28.8,17.6,33.5c0.5,0.1,0.8,0.7,1.2,1C668.3,1479.9,667.2,1480.5,666.1,1480.4z
		 M665.7,1175.5c-19.7-30.5-40.7-60.1-65.7-86.7c-1-1.1-2.8-2.5-1.7-3.9c0.7-0.9,3-0.5,4.5-0.7c50.4,5.9,100.9,6.8,151.5,5.3
		c13.2-0.4,26.6-1.4,39.6-5c1.8-0.5,4.9-1.5,5.9,0.7c0.8,1.8-2.2,2.7-3.6,3.8c-40.7,29.5-83.2,56.5-122.5,88.1
		C669.6,1180.3,667.9,1178.9,665.7,1175.5z M967.1,1546.5c10.8,9.1,20,19.6,28.6,30.7c1.3,1.7,4,3.2,2.7,5.6c-1.2,2.2-4,1-6.1,1.2
		c-33.7,3.3-67.4,1.1-97.8,1.9c-30.4,0-57.5-0.2-84.6,0.1c-6.3,0.1-9.3-1.1-8.7-8.2c1-12.7-1.4-25.5,1.8-38.1
		c0.8-3.2-1.8-8.1,2.5-9.2c4.7-1.2,10.7-2.3,14.8,1.1c10,8.4,19.9,5.7,31.3,3.3c30.3-6.4,61.2-7,91.9-2.3
		C952.7,1534,960,1540.5,967.1,1546.5z M890.4,1472.9c2.8-2.8,4.4,1.8,6.6,2.9c1.1,0.6,2.1,1.4,3,2.3c2.2,2.1,7.7,3.1,6.8,5.1
		c-1.4,3.1-6.1,0.7-8.9,1.3c-1.8,0-3.1,0.2-4.3,0c-2.6-0.4-7.1,1.4-7.3-1.6C886,1479.6,888,1475.3,890.4,1472.9z M926.8,1403.3
		c0.2-3.3,2.3-2.4,4.6-0.8c7.9,5.7,13.9,12.2,11.9,21.4c-0.2,5.8-0.1,9.8-1.8,13.8c-1.6,3.6-3.7,5.7-7.9,5.2
		c-3.8-0.5-7.4-0.7-8.6-5.7C922.3,1425.6,926.2,1414.5,926.8,1403.3z M944.2,1240.7c6.8,29.1,4.4,58.9,4.8,88.4
		c0.1,5.4,0,10.8,0,16.3c0,16-0.8,17.1-15.7,21.6c-3.7,1.1-13.4-7-13.2-11.8c0.2-9.5,0.2-19.1,0.8-28.6c1-15.8,0.6-31.8-3.6-47.1
		c-4.8-17.7-25.2-23.1-38.2-10.9c-3.4,3.2-4.9,7.2-4.9,11.9c-0.1,10.5,1.3,21,1.7,31.4c2.2,53.4-10,103.9-31.6,152.4
		c-6.3,14.1-15.7,22.4-32.6,20.3c-10.4-1.3-21-0.2-36.5-0.2c-27.5,0.3-59.9-1.3-92.3-3.7c-1.4-0.1-2.8-0.6-4.2-0.9
		c1.3-0.7,2.5-1.4,3.8-2.1c10.7-5,13.6-14.2,13.6-25c0-68.2,0-136.4,0.2-204.6c0-9.2,1.2-18.4,1.9-27.5c0.5-5.7,4.6-8.7,8.7-11.9
		c38.8-30.6,80.5-57.1,120.4-86.1c13.6-9.9,26.9-20.5,42.3-27.7c1.7-0.8,3.3-1.9,5-2.6c7.9-3,13-1.5,17.2,6.9
		C914.4,1144.4,932.6,1191.3,944.2,1240.7z"/>
	<path class="st0" d="M571.9,936.7c-5.5,0.6-9.8-1.1-14-3.6c-19.5-11.3-38.7-23.1-60.5-29.9c-10.9-3.4-15.5-13.6-13.5-25.4
		c1.5-8.8,9.5-14.9,20.2-15.7c8.8-0.6,16.9,2.1,24.9,5.5c16.4,7,31.7,16.1,47.1,25c5.3,3,10.2,6.7,13.3,12
		c4.4,7.4,4.8,15.2,0.4,22.6C585.8,934.1,579.7,938,571.9,936.7z"/>
	<path class="st0" d="M749.7,1262.2c-15.8,0.1-28.4-12.4-28.6-28.3c-0.2-16.8,12.6-29.7,29.4-29.5c15.5,0.2,28.2,13.1,28.3,28.9
		C778.9,1249.4,766.1,1262.1,749.7,1262.2z"/>
</g>
</svg>
